<svg xmlns="http://www.w3.org/2000/svg" xmlns:xlink="http://www.w3.org/1999/xlink" contentStyleType="text/css" data-diagram-type="CLASS" height="618px" preserveAspectRatio="none" style="width:752px;height:618px;background:#FFFFFF;" version="1.1" viewBox="0 0 752 618" width="752px" zoomAndPan="magnify"><defs/><g><!--cluster models--><g class="cluster" data-entity="models" data-source-line="2" data-uid="ent0002" id="cluster_models"><path d="M8.5,508 L66.3545,508 A3.75,3.75 0 0 1 68.8545,510.5 L75.8545,530.2969 L321.5,530.2969 A2.5,2.5 0 0 1 324,532.7969 L324,604.5 A2.5,2.5 0 0 1 321.5,607 L8.5,607 A2.5,2.5 0 0 1 6,604.5 L6,510.5 A2.5,2.5 0 0 1 8.5,508" fill="none" style="stroke:#000000;stroke-width:1.5;"/><line style="stroke:#000000;stroke-width:1.5;" x1="6" x2="75.8545" y1="530.2969" y2="530.2969"/><text fill="#000000" font-family="sans-serif" font-size="14" font-weight="bold" lengthAdjust="spacing" textLength="56.8545" x="10" y="522.9951">models</text></g><!--cluster conn--><g class="cluster" data-entity="conn" data-source-line="8" data-uid="ent0006" id="cluster_conn"><path d="M350.5,504 L389.3506,504 A3.75,3.75 0 0 1 391.8506,506.5 L398.8506,526.2969 L549.5,526.2969 A2.5,2.5 0 0 1 552,528.7969 L552,608.5 A2.5,2.5 0 0 1 549.5,611 L350.5,611 A2.5,2.5 0 0 1 348,608.5 L348,506.5 A2.5,2.5 0 0 1 350.5,504" fill="none" style="stroke:#000000;stroke-width:1.5;"/><line style="stroke:#000000;stroke-width:1.5;" x1="348" x2="398.8506" y1="526.2969" y2="526.2969"/><text fill="#000000" font-family="sans-serif" font-size="14" font-weight="bold" lengthAdjust="spacing" textLength="37.8506" x="352" y="518.9951">conn</text></g><!--cluster dao--><g class="cluster" data-entity="dao" data-source-line="12" data-uid="ent0008" id="cluster_dao"><path d="M210.5,247 L240.5869,247 A3.75,3.75 0 0 1 243.0869,249.5 L250.0869,269.2969 L498.5,269.2969 A2.5,2.5 0 0 1 501,271.7969 L501,452.5 A2.5,2.5 0 0 1 498.5,455 L210.5,455 A2.5,2.5 0 0 1 208,452.5 L208,249.5 A2.5,2.5 0 0 1 210.5,247" fill="none" style="stroke:#000000;stroke-width:1.5;"/><line style="stroke:#000000;stroke-width:1.5;" x1="208" x2="250.0869" y1="269.2969" y2="269.2969"/><text fill="#000000" font-family="sans-serif" font-size="14" font-weight="bold" lengthAdjust="spacing" textLength="29.0869" x="212" y="261.9951">dao</text></g><!--cluster ui--><g class="cluster" data-entity="ui" data-source-line="19" data-uid="ent0013" id="cluster_ui"><path d="M301.5,6 L317.2656,6 A3.75,3.75 0 0 1 319.7656,8.5 L326.7656,28.2969 L742.5,28.2969 A2.5,2.5 0 0 1 745,30.7969 L745,211.5 A2.5,2.5 0 0 1 742.5,214 L301.5,214 A2.5,2.5 0 0 1 299,211.5 L299,8.5 A2.5,2.5 0 0 1 301.5,6" fill="none" style="stroke:#000000;stroke-width:1.5;"/><line style="stroke:#000000;stroke-width:1.5;" x1="299" x2="326.7656" y1="28.2969" y2="28.2969"/><text fill="#000000" font-family="sans-serif" font-size="14" font-weight="bold" lengthAdjust="spacing" textLength="14.7656" x="303" y="20.9951">ui</text></g><!--class Book--><g class="entity" data-entity="Book" data-source-line="3" data-uid="ent0003" id="entity_Book"><rect fill="#F1F1F1" height="48" rx="2.5" ry="2.5" style="stroke:#181818;stroke-width:0.5;" width="66.8428" x="240.5" y="543"/><ellipse cx="255.5" cy="559" fill="#ADD1B2" rx="11" ry="11" style="stroke:#181818;stroke-width:1;"/><path d="M258.4688,564.6406 Q257.8906,564.9375 257.25,565.0781 Q256.6094,565.2344 255.9063,565.2344 Q253.4063,565.2344 252.0781,563.5938 Q250.7656,561.9375 250.7656,558.8125 Q250.7656,555.6875 252.0781,554.0313 Q253.4063,552.375 255.9063,552.375 Q256.6094,552.375 257.25,552.5313 Q257.9063,552.6875 258.4688,552.9844 L258.4688,555.7031 Q257.8438,555.125 257.25,554.8594 Q256.6563,554.5781 256.0313,554.5781 Q254.6875,554.5781 254,555.6563 Q253.3125,556.7188 253.3125,558.8125 Q253.3125,560.9063 254,561.9844 Q254.6875,563.0469 256.0313,563.0469 Q256.6563,563.0469 257.25,562.7813 Q257.8438,562.5 258.4688,561.9219 L258.4688,564.6406 Z " fill="#000000"/><text fill="#000000" font-family="sans-serif" font-size="14" lengthAdjust="spacing" textLength="34.8428" x="269.5" y="563.8467">Book</text><line style="stroke:#181818;stroke-width:0.5;" x1="241.5" x2="306.3428" y1="575" y2="575"/><line style="stroke:#181818;stroke-width:0.5;" x1="241.5" x2="306.3428" y1="583" y2="583"/></g><!--class Loan--><g class="entity" data-entity="Loan" data-source-line="4" data-uid="ent0004" id="entity_Loan"><rect fill="#F1F1F1" height="48" rx="2.5" ry="2.5" style="stroke:#181818;stroke-width:0.5;" width="65.8174" x="139" y="543"/><ellipse cx="154" cy="559" fill="#ADD1B2" rx="11" ry="11" style="stroke:#181818;stroke-width:1;"/><path d="M156.9688,564.6406 Q156.3906,564.9375 155.75,565.0781 Q155.1094,565.2344 154.4063,565.2344 Q151.9063,565.2344 150.5781,563.5938 Q149.2656,561.9375 149.2656,558.8125 Q149.2656,555.6875 150.5781,554.0313 Q151.9063,552.375 154.4063,552.375 Q155.1094,552.375 155.75,552.5313 Q156.4063,552.6875 156.9688,552.9844 L156.9688,555.7031 Q156.3438,555.125 155.75,554.8594 Q155.1563,554.5781 154.5313,554.5781 Q153.1875,554.5781 152.5,555.6563 Q151.8125,556.7188 151.8125,558.8125 Q151.8125,560.9063 152.5,561.9844 Q153.1875,563.0469 154.5313,563.0469 Q155.1563,563.0469 155.75,562.7813 Q156.3438,562.5 156.9688,561.9219 L156.9688,564.6406 Z " fill="#000000"/><text fill="#000000" font-family="sans-serif" font-size="14" lengthAdjust="spacing" textLength="33.8174" x="168" y="563.8467">Loan</text><line style="stroke:#181818;stroke-width:0.5;" x1="140" x2="203.8174" y1="575" y2="575"/><line style="stroke:#181818;stroke-width:0.5;" x1="140" x2="203.8174" y1="583" y2="583"/></g><!--class Reader--><g class="entity" data-entity="Reader" data-source-line="5" data-uid="ent0005" id="entity_Reader"><rect fill="#F1F1F1" height="48" rx="2.5" ry="2.5" style="stroke:#181818;stroke-width:0.5;" width="82.1758" x="22" y="543"/><ellipse cx="37" cy="559" fill="#ADD1B2" rx="11" ry="11" style="stroke:#181818;stroke-width:1;"/><path d="M39.9688,564.6406 Q39.3906,564.9375 38.75,565.0781 Q38.1094,565.2344 37.4063,565.2344 Q34.9063,565.2344 33.5781,563.5938 Q32.2656,561.9375 32.2656,558.8125 Q32.2656,555.6875 33.5781,554.0313 Q34.9063,552.375 37.4063,552.375 Q38.1094,552.375 38.75,552.5313 Q39.4063,552.6875 39.9688,552.9844 L39.9688,555.7031 Q39.3438,555.125 38.75,554.8594 Q38.1563,554.5781 37.5313,554.5781 Q36.1875,554.5781 35.5,555.6563 Q34.8125,556.7188 34.8125,558.8125 Q34.8125,560.9063 35.5,561.9844 Q36.1875,563.0469 37.5313,563.0469 Q38.1563,563.0469 38.75,562.7813 Q39.3438,562.5 39.9688,561.9219 L39.9688,564.6406 Z " fill="#000000"/><text fill="#000000" font-family="sans-serif" font-size="14" lengthAdjust="spacing" textLength="50.1758" x="51" y="563.8467">Reader</text><line style="stroke:#181818;stroke-width:0.5;" x1="23" x2="103.1758" y1="575" y2="575"/><line style="stroke:#181818;stroke-width:0.5;" x1="23" x2="103.1758" y1="583" y2="583"/></g><!--class DatabaseConnector--><g class="entity" data-entity="DatabaseConnector" data-source-line="9" data-uid="ent0007" id="entity_DatabaseConnector"><rect fill="#F1F1F1" height="56.2656" rx="2.5" ry="2.5" style="stroke:#181818;stroke-width:0.5;" width="171.0088" x="364.5" y="539"/><ellipse cx="379.5" cy="559.1328" fill="#ADD1B2" rx="11" ry="11" style="stroke:#181818;stroke-width:1;"/><path d="M382.4688,564.7734 Q381.8906,565.0703 381.25,565.2109 Q380.6094,565.3672 379.9063,565.3672 Q377.4063,565.3672 376.0781,563.7266 Q374.7656,562.0703 374.7656,558.9453 Q374.7656,555.8203 376.0781,554.1641 Q377.4063,552.5078 379.9063,552.5078 Q380.6094,552.5078 381.25,552.6641 Q381.9063,552.8203 382.4688,553.1172 L382.4688,555.8359 Q381.8438,555.2578 381.25,554.9922 Q380.6563,554.7109 380.0313,554.7109 Q378.6875,554.7109 378,555.7891 Q377.3125,556.8516 377.3125,558.9453 Q377.3125,561.0391 378,562.1172 Q378.6875,563.1797 380.0313,563.1797 Q380.6563,563.1797 381.25,562.9141 Q381.8438,562.6328 382.4688,562.0547 L382.4688,564.7734 Z " fill="#000000"/><text fill="#000000" font-family="sans-serif" font-size="12" font-style="italic" lengthAdjust="spacing" textLength="71.3555" x="427.3267" y="555.1387">&#171;Singleton&#187;</text><text fill="#000000" font-family="sans-serif" font-size="14" lengthAdjust="spacing" textLength="139.0088" x="393.5" y="570.9639">DatabaseConnector</text><line style="stroke:#181818;stroke-width:0.5;" x1="365.5" x2="534.5088" y1="579.2656" y2="579.2656"/><line style="stroke:#181818;stroke-width:0.5;" x1="365.5" x2="534.5088" y1="587.2656" y2="587.2656"/></g><!--class GenericDAO--><g class="entity" data-entity="GenericDAO" data-source-line="13" data-uid="ent0009" id="entity_GenericDAO"><rect fill="#F1F1F1" height="48" rx="2.5" ry="2.5" style="stroke:#181818;stroke-width:0.5;" width="128.998" x="355.5" y="282"/><ellipse cx="370.5" cy="298" fill="#B4A7E5" rx="11" ry="11" style="stroke:#181818;stroke-width:1;"/><path d="M366.4219,293.7656 L366.4219,291.6094 L373.8125,291.6094 L373.8125,293.7656 L371.3438,293.7656 L371.3438,301.8438 L373.8125,301.8438 L373.8125,304 L366.4219,304 L366.4219,301.8438 L368.8906,301.8438 L368.8906,293.7656 L366.4219,293.7656 Z " fill="#000000"/><text fill="#000000" font-family="sans-serif" font-size="14" font-style="italic" lengthAdjust="spacing" textLength="85.668" x="384.5" y="302.8467">GenericDAO</text><rect fill="#FFFFFF" height="15.9688" style="stroke:#181818;stroke-width:1;stroke-dasharray:2,2;" width="9.3301" x="478.168" y="279"/><text fill="#000000" font-family="sans-serif" font-size="12" font-style="italic" lengthAdjust="spacing" textLength="7.3301" x="479.168" y="291.1387">T</text><line style="stroke:#181818;stroke-width:0.5;" x1="356.5" x2="483.498" y1="314" y2="314"/><line style="stroke:#181818;stroke-width:0.5;" x1="356.5" x2="483.498" y1="322" y2="322"/></g><!--class BookDAO--><g class="entity" data-entity="BookDAO" data-source-line="14" data-uid="ent0010" id="entity_BookDAO"><rect fill="#F1F1F1" height="48" rx="2.5" ry="2.5" style="stroke:#181818;stroke-width:0.5;" width="98.2197" x="387" y="391"/><ellipse cx="402" cy="407" fill="#ADD1B2" rx="11" ry="11" style="stroke:#181818;stroke-width:1;"/><path d="M404.9688,412.6406 Q404.3906,412.9375 403.75,413.0781 Q403.1094,413.2344 402.4063,413.2344 Q399.9063,413.2344 398.5781,411.5938 Q397.2656,409.9375 397.2656,406.8125 Q397.2656,403.6875 398.5781,402.0313 Q399.9063,400.375 402.4063,400.375 Q403.1094,400.375 403.75,400.5313 Q404.4063,400.6875 404.9688,400.9844 L404.9688,403.7031 Q404.3438,403.125 403.75,402.8594 Q403.1563,402.5781 402.5313,402.5781 Q401.1875,402.5781 400.5,403.6563 Q399.8125,404.7188 399.8125,406.8125 Q399.8125,408.9063 400.5,409.9844 Q401.1875,411.0469 402.5313,411.0469 Q403.1563,411.0469 403.75,410.7813 Q404.3438,410.5 404.9688,409.9219 L404.9688,412.6406 Z " fill="#000000"/><text fill="#000000" font-family="sans-serif" font-size="14" lengthAdjust="spacing" textLength="66.2197" x="416" y="411.8467">BookDAO</text><line style="stroke:#181818;stroke-width:0.5;" x1="388" x2="484.2197" y1="423" y2="423"/><line style="stroke:#181818;stroke-width:0.5;" x1="388" x2="484.2197" y1="431" y2="431"/></g><!--class LoanDAO--><g class="entity" data-entity="LoanDAO" data-source-line="15" data-uid="ent0011" id="entity_LoanDAO"><rect fill="#F1F1F1" height="48" rx="2.5" ry="2.5" style="stroke:#181818;stroke-width:0.5;" width="97.1943" x="223.5" y="282"/><ellipse cx="238.5" cy="298" fill="#ADD1B2" rx="11" ry="11" style="stroke:#181818;stroke-width:1;"/><path d="M241.4688,303.6406 Q240.8906,303.9375 240.25,304.0781 Q239.6094,304.2344 238.9063,304.2344 Q236.4063,304.2344 235.0781,302.5938 Q233.7656,300.9375 233.7656,297.8125 Q233.7656,294.6875 235.0781,293.0313 Q236.4063,291.375 238.9063,291.375 Q239.6094,291.375 240.25,291.5313 Q240.9063,291.6875 241.4688,291.9844 L241.4688,294.7031 Q240.8438,294.125 240.25,293.8594 Q239.6563,293.5781 239.0313,293.5781 Q237.6875,293.5781 237,294.6563 Q236.3125,295.7188 236.3125,297.8125 Q236.3125,299.9063 237,300.9844 Q237.6875,302.0469 239.0313,302.0469 Q239.6563,302.0469 240.25,301.7813 Q240.8438,301.5 241.4688,300.9219 L241.4688,303.6406 Z " fill="#000000"/><text fill="#000000" font-family="sans-serif" font-size="14" lengthAdjust="spacing" textLength="65.1943" x="252.5" y="302.8467">LoanDAO</text><line style="stroke:#181818;stroke-width:0.5;" x1="224.5" x2="319.6943" y1="314" y2="314"/><line style="stroke:#181818;stroke-width:0.5;" x1="224.5" x2="319.6943" y1="322" y2="322"/></g><!--class ReaderDAO--><g class="entity" data-entity="ReaderDAO" data-source-line="16" data-uid="ent0012" id="entity_ReaderDAO"><rect fill="#F1F1F1" height="48" rx="2.5" ry="2.5" style="stroke:#181818;stroke-width:0.5;" width="113.5527" x="238" y="391"/><ellipse cx="253" cy="407" fill="#ADD1B2" rx="11" ry="11" style="stroke:#181818;stroke-width:1;"/><path d="M255.9688,412.6406 Q255.3906,412.9375 254.75,413.0781 Q254.1094,413.2344 253.4063,413.2344 Q250.9063,413.2344 249.5781,411.5938 Q248.2656,409.9375 248.2656,406.8125 Q248.2656,403.6875 249.5781,402.0313 Q250.9063,400.375 253.4063,400.375 Q254.1094,400.375 254.75,400.5313 Q255.4063,400.6875 255.9688,400.9844 L255.9688,403.7031 Q255.3438,403.125 254.75,402.8594 Q254.1563,402.5781 253.5313,402.5781 Q252.1875,402.5781 251.5,403.6563 Q250.8125,404.7188 250.8125,406.8125 Q250.8125,408.9063 251.5,409.9844 Q252.1875,411.0469 253.5313,411.0469 Q254.1563,411.0469 254.75,410.7813 Q255.3438,410.5 255.9688,409.9219 L255.9688,412.6406 Z " fill="#000000"/><text fill="#000000" font-family="sans-serif" font-size="14" lengthAdjust="spacing" textLength="81.5527" x="267" y="411.8467">ReaderDAO</text><line style="stroke:#181818;stroke-width:0.5;" x1="239" x2="350.5527" y1="423" y2="423"/><line style="stroke:#181818;stroke-width:0.5;" x1="239" x2="350.5527" y1="431" y2="431"/></g><!--class MainFrame--><g class="entity" data-entity="MainFrame" data-source-line="20" data-uid="ent0014" id="entity_MainFrame"><rect fill="#F1F1F1" height="48" rx="2.5" ry="2.5" style="stroke:#181818;stroke-width:0.5;" width="110.0596" x="452" y="41"/><ellipse cx="467" cy="57" fill="#ADD1B2" rx="11" ry="11" style="stroke:#181818;stroke-width:1;"/><path d="M469.9688,62.6406 Q469.3906,62.9375 468.75,63.0781 Q468.1094,63.2344 467.4063,63.2344 Q464.9063,63.2344 463.5781,61.5938 Q462.2656,59.9375 462.2656,56.8125 Q462.2656,53.6875 463.5781,52.0313 Q464.9063,50.375 467.4063,50.375 Q468.1094,50.375 468.75,50.5313 Q469.4063,50.6875 469.9688,50.9844 L469.9688,53.7031 Q469.3438,53.125 468.75,52.8594 Q468.1563,52.5781 467.5313,52.5781 Q466.1875,52.5781 465.5,53.6563 Q464.8125,54.7188 464.8125,56.8125 Q464.8125,58.9063 465.5,59.9844 Q466.1875,61.0469 467.5313,61.0469 Q468.1563,61.0469 468.75,60.7813 Q469.3438,60.5 469.9688,59.9219 L469.9688,62.6406 Z " fill="#000000"/><text fill="#000000" font-family="sans-serif" font-size="14" lengthAdjust="spacing" textLength="78.0596" x="481" y="61.8467">MainFrame</text><line style="stroke:#181818;stroke-width:0.5;" x1="453" x2="561.0596" y1="73" y2="73"/><line style="stroke:#181818;stroke-width:0.5;" x1="453" x2="561.0596" y1="81" y2="81"/></g><!--class BookPanel--><g class="entity" data-entity="BookPanel" data-source-line="21" data-uid="ent0015" id="entity_BookPanel"><rect fill="#F1F1F1" height="48" rx="2.5" ry="2.5" style="stroke:#181818;stroke-width:0.5;" width="105.2402" x="454.5" y="150"/><ellipse cx="469.5" cy="166" fill="#ADD1B2" rx="11" ry="11" style="stroke:#181818;stroke-width:1;"/><path d="M472.4688,171.6406 Q471.8906,171.9375 471.25,172.0781 Q470.6094,172.2344 469.9063,172.2344 Q467.4063,172.2344 466.0781,170.5938 Q464.7656,168.9375 464.7656,165.8125 Q464.7656,162.6875 466.0781,161.0313 Q467.4063,159.375 469.9063,159.375 Q470.6094,159.375 471.25,159.5313 Q471.9063,159.6875 472.4688,159.9844 L472.4688,162.7031 Q471.8438,162.125 471.25,161.8594 Q470.6563,161.5781 470.0313,161.5781 Q468.6875,161.5781 468,162.6563 Q467.3125,163.7188 467.3125,165.8125 Q467.3125,167.9063 468,168.9844 Q468.6875,170.0469 470.0313,170.0469 Q470.6563,170.0469 471.25,169.7813 Q471.8438,169.5 472.4688,168.9219 L472.4688,171.6406 Z " fill="#000000"/><text fill="#000000" font-family="sans-serif" font-size="14" lengthAdjust="spacing" textLength="73.2402" x="483.5" y="170.8467">BookPanel</text><line style="stroke:#181818;stroke-width:0.5;" x1="455.5" x2="558.7402" y1="182" y2="182"/><line style="stroke:#181818;stroke-width:0.5;" x1="455.5" x2="558.7402" y1="190" y2="190"/></g><!--class LoanPanel--><g class="entity" data-entity="LoanPanel" data-source-line="22" data-uid="ent0016" id="entity_LoanPanel"><rect fill="#F1F1F1" height="48" rx="2.5" ry="2.5" style="stroke:#181818;stroke-width:0.5;" width="104.2148" x="315" y="150"/><ellipse cx="330" cy="166" fill="#ADD1B2" rx="11" ry="11" style="stroke:#181818;stroke-width:1;"/><path d="M332.9688,171.6406 Q332.3906,171.9375 331.75,172.0781 Q331.1094,172.2344 330.4063,172.2344 Q327.9063,172.2344 326.5781,170.5938 Q325.2656,168.9375 325.2656,165.8125 Q325.2656,162.6875 326.5781,161.0313 Q327.9063,159.375 330.4063,159.375 Q331.1094,159.375 331.75,159.5313 Q332.4063,159.6875 332.9688,159.9844 L332.9688,162.7031 Q332.3438,162.125 331.75,161.8594 Q331.1563,161.5781 330.5313,161.5781 Q329.1875,161.5781 328.5,162.6563 Q327.8125,163.7188 327.8125,165.8125 Q327.8125,167.9063 328.5,168.9844 Q329.1875,170.0469 330.5313,170.0469 Q331.1563,170.0469 331.75,169.7813 Q332.3438,169.5 332.9688,168.9219 L332.9688,171.6406 Z " fill="#000000"/><text fill="#000000" font-family="sans-serif" font-size="14" lengthAdjust="spacing" textLength="72.2148" x="344" y="170.8467">LoanPanel</text><line style="stroke:#181818;stroke-width:0.5;" x1="316" x2="418.2148" y1="182" y2="182"/><line style="stroke:#181818;stroke-width:0.5;" x1="316" x2="418.2148" y1="190" y2="190"/></g><!--class StatisticsPanel--><g class="entity" data-entity="StatisticsPanel" data-source-line="23" data-uid="ent0017" id="entity_StatisticsPanel"><rect fill="#F1F1F1" height="48" rx="2.5" ry="2.5" style="stroke:#181818;stroke-width:0.5;" width="134.3955" x="595" y="150"/><ellipse cx="610" cy="166" fill="#ADD1B2" rx="11" ry="11" style="stroke:#181818;stroke-width:1;"/><path d="M612.9688,171.6406 Q612.3906,171.9375 611.75,172.0781 Q611.1094,172.2344 610.4063,172.2344 Q607.9063,172.2344 606.5781,170.5938 Q605.2656,168.9375 605.2656,165.8125 Q605.2656,162.6875 606.5781,161.0313 Q607.9063,159.375 610.4063,159.375 Q611.1094,159.375 611.75,159.5313 Q612.4063,159.6875 612.9688,159.9844 L612.9688,162.7031 Q612.3438,162.125 611.75,161.8594 Q611.1563,161.5781 610.5313,161.5781 Q609.1875,161.5781 608.5,162.6563 Q607.8125,163.7188 607.8125,165.8125 Q607.8125,167.9063 608.5,168.9844 Q609.1875,170.0469 610.5313,170.0469 Q611.1563,170.0469 611.75,169.7813 Q612.3438,169.5 612.9688,168.9219 L612.9688,171.6406 Z " fill="#000000"/><text fill="#000000" font-family="sans-serif" font-size="14" lengthAdjust="spacing" textLength="102.3955" x="624" y="170.8467">StatisticsPanel</text><line style="stroke:#181818;stroke-width:0.5;" x1="596" x2="728.3955" y1="182" y2="182"/><line style="stroke:#181818;stroke-width:0.5;" x1="596" x2="728.3955" y1="190" y2="190"/></g><!--reverse link GenericDAO to BookDAO--><g class="link" data-entity-1="GenericDAO" data-entity-2="BookDAO" data-source-line="26" data-uid="lnk18" id="link_GenericDAO_BookDAO"><path codeLine="26" d="M426.1392,348.021 C428.8292,365.961 429.85,372.89 432.54,390.83" fill="none" id="GenericDAO-backto-BookDAO" style="stroke:#181818;stroke-width:1;stroke-dasharray:7,7;"/><polygon fill="none" points="423.47,330.22,420.2055,348.9107,432.0728,347.1313,423.47,330.22" style="stroke:#181818;stroke-width:1;"/></g><!--reverse link GenericDAO to ReaderDAO--><g class="link" data-entity-1="GenericDAO" data-entity-2="ReaderDAO" data-source-line="27" data-uid="lnk19" id="link_GenericDAO_ReaderDAO"><path codeLine="27" d="M379.2023,341.9213 C358.2323,359.8613 343.02,372.89 322.07,390.83" fill="none" id="GenericDAO-backto-ReaderDAO" style="stroke:#181818;stroke-width:1;stroke-dasharray:7,7;"/><polygon fill="none" points="392.88,330.22,375.3019,337.3621,383.1028,346.4806,392.88,330.22" style="stroke:#181818;stroke-width:1;"/></g><!--link BookDAO to Book--><g class="link" data-entity-1="BookDAO" data-entity-2="Book" data-source-line="28" data-uid="lnk20" id="link_BookDAO_Book"><path codeLine="28" d="M410.08,439.32 C392.49,455.21 368.74,476.77 348,496 C331.27,511.51 316.9571,525.0344 302.5671,538.7244" fill="none" id="BookDAO-to-Book" style="stroke:#181818;stroke-width:1;stroke-dasharray:7,7;"/><polygon fill="#181818" points="298.22,542.86,307.4976,539.5546,301.8425,539.4137,301.9835,533.7586,298.22,542.86" style="stroke:#181818;stroke-width:1;"/><text fill="#000000" font-family="sans-serif" font-size="13" lengthAdjust="spacing" textLength="29.7832" x="375" y="484.0669">uses</text></g><!--link LoanDAO to Loan--><g class="link" data-entity-1="LoanDAO" data-entity-2="Loan" data-source-line="29" data-uid="lnk21" id="link_LoanDAO_Loan"><path codeLine="29" d="M240.54,330.23 C222.53,345.39 201.32,366.82 190,391 C166.49,441.2 166.8495,502.2048 169.2895,536.9348" fill="none" id="LoanDAO-to-Loan" style="stroke:#181818;stroke-width:1;stroke-dasharray:7,7;"/><polygon fill="#181818" points="169.71,542.92,173.0694,533.6618,169.3596,537.9323,165.0891,534.2225,169.71,542.92" style="stroke:#181818;stroke-width:1;"/><text fill="#000000" font-family="sans-serif" font-size="13" lengthAdjust="spacing" textLength="29.7832" x="191" y="419.5669">uses</text></g><!--reverse link MainFrame to BookPanel--><g class="link" data-entity-1="MainFrame" data-entity-2="BookPanel" data-source-line="30" data-uid="lnk22" id="link_MainFrame_BookPanel"><path codeLine="30" d="M507,101.22 C507,119.16 507,131.89 507,149.83" fill="none" id="MainFrame-backto-BookPanel" style="stroke:#181818;stroke-width:1;"/><polygon fill="#181818" points="507,89.22,503,95.22,507,101.22,511,95.22,507,89.22" style="stroke:#181818;stroke-width:1;"/></g><!--reverse link MainFrame to LoanPanel--><g class="link" data-entity-1="MainFrame" data-entity-2="LoanPanel" data-source-line="31" data-uid="lnk23" id="link_MainFrame_LoanPanel"><path codeLine="31" d="M467.0847,96.5055 C443.6047,114.4455 420.79,131.89 397.32,149.83" fill="none" id="MainFrame-backto-LoanPanel" style="stroke:#181818;stroke-width:1;"/><polygon fill="#181818" points="476.62,89.22,469.4239,89.6843,467.0847,96.5055,474.2808,96.0412,476.62,89.22" style="stroke:#181818;stroke-width:1;"/></g><!--reverse link MainFrame to StatisticsPanel--><g class="link" data-entity-1="MainFrame" data-entity-2="StatisticsPanel" data-source-line="32" data-uid="lnk24" id="link_MainFrame_StatisticsPanel"><path codeLine="32" d="M550.507,96.0351 C576.507,113.9751 602.45,131.89 628.43,149.83" fill="none" id="MainFrame-backto-StatisticsPanel" style="stroke:#181818;stroke-width:1;"/><polygon fill="#181818" points="540.63,89.22,543.2968,95.9199,550.507,96.0351,547.8402,89.3352,540.63,89.22" style="stroke:#181818;stroke-width:1;"/></g><!--link BookPanel to BookDAO--><g class="link" data-entity-1="BookPanel" data-entity-2="BookDAO" data-source-line="33" data-uid="lnk25" id="link_BookPanel_BookDAO"><path codeLine="33" d="M510.62,198.17 C514.51,229.23 518.16,285.6 502,330 C493.5,353.35 479.9585,370.9352 465.0385,386.5252" fill="none" id="BookPanel-to-BookDAO" style="stroke:#181818;stroke-width:1;"/><polygon fill="#181818" points="460.89,390.86,470.0026,387.1235,464.3471,387.2477,464.2229,381.5922,460.89,390.86" style="stroke:#181818;stroke-width:1;"/></g><!--link LoanPanel to LoanDAO--><g class="link" data-entity-1="LoanPanel" data-entity-2="LoanDAO" data-source-line="34" data-uid="lnk26" id="link_LoanPanel_LoanDAO"><path codeLine="34" d="M350.02,198.24 C332.72,221.9 309.6203,253.5258 292.3803,277.1158" fill="none" id="LoanPanel-to-LoanDAO" style="stroke:#181818;stroke-width:1;"/><polygon fill="#181818" points="288.84,281.96,297.3799,277.0538,291.7902,277.9231,290.9209,272.3335,288.84,281.96" style="stroke:#181818;stroke-width:1;"/></g><!--link BookDAO to DatabaseConnector--><g class="link" data-entity-1="BookDAO" data-entity-2="DatabaseConnector" data-source-line="35" data-uid="lnk27" id="link_BookDAO_DatabaseConnector"><path codeLine="35" d="M438.16,439.11 C440.66,465.98 444.2426,504.3159 446.9026,532.8259" fill="none" id="BookDAO-to-DatabaseConnector" style="stroke:#181818;stroke-width:1;stroke-dasharray:7,7;"/><polygon fill="#181818" points="447.46,538.8,450.6066,529.4673,446.9955,533.8216,442.6412,530.2105,447.46,538.8" style="stroke:#181818;stroke-width:1;"/></g><!--SRC=[PP7BQiCm44Nt-eeXou9DryK8qeQ6GajBtH-OoDCms962DDxqyUzLx4IMqftcCFTo98MUxH4z7i0C6C9QnFDk57eophRyHN2hZcXwt1Ei3gwZ8QpWMy6y3VVEzMbuTcZJy4xOaLU_Qed7Hfk7DoYumq0FaPCHvw5fMhRxWSHPhOjiXswEiXNodsW8jcJ9izciNviFNHX5L4Zby-nr8ddzoBdO2x9zZ4z2HUiRMXgAtfAqWi91s8IPn_v54PgVkavortoHEcz0NUjf6-vW31JK-HeJFvqlFAd2JLLbcYLVP4j-hPpoK5KwsQRqH2yFcfl- -ya_]--></g></svg>